<svg xmlns="http://www.w3.org/2000/svg" width="42.511" height="43" viewBox="0 0 169.031 170.974">
  <defs>
    <style>
      .cls-1 {
        fill: #fff;
        fill-rule: evenodd;
      }
    </style>
  </defs>
  <path id="Прямоугольник_1_копия_11" data-name="Прямоугольник 1 копия 11" class="cls-1" d="M208.76,115.6a5.682,5.682,0,0,1-6.984-3.961l-0.641-2.191L193.4,111.7a64.894,64.894,0,0,1,.358,26.919l7.291,1.817,0.571-2.251a5.782,5.782,0,0,1,6.915-4.312,5.721,5.721,0,0,1,4.032,7.041l-3.405,13.418a5.783,5.783,0,0,1-6.915,4.313,5.722,5.722,0,0,1-4.033-7.041l0.571-2.25-7.444-1.856a65.772,65.772,0,0,1-13.591,22.666l5.846,5.241,1.534-1.675a5.722,5.722,0,0,1,8.013-.509,5.576,5.576,0,0,1,.275,7.939l-9.147,9.987a5.723,5.723,0,0,1-8.014.509,5.576,5.576,0,0,1-.274-7.939l1.534-1.675-6.287-5.636a67.145,67.145,0,0,1-21.224,11.929l2.12,7.631,2.159-.574a5.634,5.634,0,0,1,6.913,3.828,5.482,5.482,0,0,1-3.982,6.723l-12.876,3.422a5.635,5.635,0,0,1-6.913-3.829,5.484,5.484,0,0,1,3.982-6.723l2.159-.574-2.109-7.591a68.058,68.058,0,0,1-25.914.208l-1.893,8.279,2.158,0.512a5.594,5.594,0,0,1,4.223,6.633,5.483,5.483,0,0,1-6.666,4.048L100.5,207.273a5.594,5.594,0,0,1-4.223-6.633,5.483,5.483,0,0,1,6.666-4.048l2.158,0.513,1.924-8.413A67.254,67.254,0,0,1,83.99,175.741L78.7,180.92l1.615,1.621a5.6,5.6,0,0,1,.115,7.967,5.72,5.72,0,0,1-8.034-.215l-9.631-9.669a5.6,5.6,0,0,1-.115-7.967,5.721,5.721,0,0,1,8.034.215l1.615,1.621,5.227-5.117a65.8,65.8,0,0,1-12.793-21.667l-7.658,1.248,0.361,2.259A5.542,5.542,0,1,1,46.5,153l-2.151-13.471a5.542,5.542,0,1,1,10.931-1.781l0.361,2.259L62.3,138.92a65.219,65.219,0,0,1,.082-26.31L55.344,111.6,55,113.892a5.809,5.809,0,0,1-6.478,4.971,5.7,5.7,0,0,1-4.732-6.574l2.063-13.643a5.808,5.808,0,0,1,6.478-4.971,5.7,5.7,0,0,1,4.732,6.573l-0.346,2.288,8.211,1.174a65.755,65.755,0,0,1,12.58-21.072l-6.6-6.827L69.25,77.386a5.745,5.745,0,0,1-8.073-.055,5.627,5.627,0,0,1,.286-8l9.879-9.389A5.745,5.745,0,0,1,79.416,60a5.627,5.627,0,0,1-.286,8l-1.657,1.575,6.487,6.71a67.214,67.214,0,0,1,21.819-12.543l-2.589-9.09-2.143.593a5.6,5.6,0,0,1-6.909-3.779,5.5,5.5,0,0,1,3.9-6.771l12.779-3.536a5.6,5.6,0,0,1,6.91,3.779,5.5,5.5,0,0,1-3.905,6.771l-2.143.593,2.594,9.107a67.985,67.985,0,0,1,25.957-.3l2.138-8.639-2.154-.551A5.6,5.6,0,0,1,136.1,45.2a5.5,5.5,0,0,1,6.753-3.935L155.7,44.551a5.6,5.6,0,0,1,4.117,6.713,5.5,5.5,0,0,1-6.753,3.935l-2.154-.551-2.129,8.6a67.21,67.21,0,0,1,22.11,12.059l5.589-5.829L174.843,67.9a5.5,5.5,0,1,1,7.613-7.94l9.775,9.372a5.5,5.5,0,1,1-7.614,7.94l-1.639-1.572-5.529,5.767a65.854,65.854,0,0,1,13.362,21.562l7.784-2.272-0.641-2.191a5.592,5.592,0,1,1,10.732-3.132l3.823,13.064A5.672,5.672,0,0,1,208.76,115.6ZM95,144.5A12.5,12.5,0,1,0,107.5,132,12.5,12.5,0,0,0,95,144.5ZM113,93a8,8,0,1,0,8,8A8,8,0,0,0,113,93Zm37.5,20A15.5,15.5,0,1,0,166,128.5,15.5,15.5,0,0,0,150.5,113Z" transform="translate(-43.719 -40.247)"/>
</svg>
